<?xml version="1.0" encoding="iso-8859-1"?>
<!-- Uploaded to: SVG Repo, www.svgrepo.com, Generator: SVG Repo Mixer Tools -->
<svg height="800px" width="800px" version="1.1" id="Layer_1" xmlns="http://www.w3.org/2000/svg" xmlns:xlink="http://www.w3.org/1999/xlink" 
	 viewBox="0 0 392.663 392.663" xml:space="preserve">
<path style="fill:#FFFFFF;" d="M285.091,302.416c-17.907-13.511-30.772-38.529-33.745-68.396h-0.646
	c-6.012,0-10.925-4.848-10.925-10.925c0-6.012,4.848-10.925,10.925-10.925h18.295c-6.659-9.244-16.162-16.097-27.281-19.071
	c-11.572-3.103-23.661-5.624-35.879-7.564l-45.511,102.141c-3.879,8.663-16.097,8.663-19.911,0L94.901,185.471
	c-12.218,1.939-24.242,4.461-35.879,7.564c-37.042,9.826-37.172,49.131-37.172,49.131v88.954h240.485
	C268.218,319.224,275.976,309.333,285.091,302.416z"/>
<path style="fill:#56ACE0;" d="M64.646,214.174c-6.335,1.681-11.636,5.56-15.386,10.796h17.067c6.012,0,10.925,4.848,10.925,10.925
	c0,6.012-4.848,10.925-10.925,10.925H43.636v21.786h6.4c6.012,0,10.925,4.849,10.925,10.925c0,6.012-4.848,10.925-10.925,10.925
	h-6.4v18.941h82.618l-44.283-99.232C76.089,211.265,70.4,212.622,64.646,214.174z"/>
<g>
	<path style="fill:#FFC10D;" d="M273.39,233.956c3.879,32.517,21.786,57.471,42.861,57.471c21.01,0,38.917-24.954,42.861-57.471
		L273.39,233.956L273.39,233.956z"/>
	<path style="fill:#FFC10D;" d="M316.251,313.341c-21.01,0-38.917,24.954-42.796,57.471h85.721
		C355.232,338.295,337.261,313.341,316.251,313.341z"/>
</g>
<path style="fill:#194F82;" d="M381.737,370.812h-0.646c-2.909-29.931-15.774-54.885-33.745-68.396
	c17.907-13.511,30.772-38.529,33.745-68.396h0.646c6.012,0,10.925-4.848,10.925-10.925c0-6.012-4.848-10.925-10.925-10.925h-87.596
	c-8.857-19.782-25.794-34.521-46.739-40.21c-15.063-4.008-30.772-7.176-46.675-9.244c-4.784-0.646-9.438,1.939-11.442,6.335
	l-38.917,87.402l-38.917-87.402c-2.004-4.396-6.659-7.046-11.442-6.335c-15.903,2.133-31.612,5.236-46.675,9.244
	C21.98,180.364,0,209.39,0,242.424v99.556c0,6.012,4.848,10.925,10.925,10.925h243.459c-1.422,5.689-2.457,11.636-3.103,17.842
	h-0.646c-6.012,0-10.925,4.849-10.925,10.925c0,6.012,4.848,10.925,10.925,10.925h130.909c6.012,0,10.925-4.848,10.925-10.925
	C392.469,375.661,387.749,370.812,381.737,370.812z M273.39,370.812c3.879-32.517,21.786-57.471,42.796-57.471
	s38.917,24.954,42.796,57.471H273.39z M21.851,242.23c0,0,0.129-39.305,37.172-49.131c11.636-3.103,23.661-5.624,35.879-7.564
	l45.511,102.141c3.879,8.663,16.097,8.663,19.911,0l45.576-102.141c12.218,1.939,24.242,4.461,35.879,7.564
	c11.119,3.038,20.622,9.826,27.281,19.071h-18.295c-6.012,0-10.925,4.848-10.925,10.925c0,6.012,4.848,10.925,10.925,10.925h0.646
	c2.909,29.931,15.774,54.885,33.745,68.396c-9.115,6.853-16.937,16.743-22.82,28.768H21.851L21.851,242.23L21.851,242.23z
	 M316.251,291.426c-21.01,0-38.917-24.954-42.861-57.471h85.786C355.232,266.602,337.261,291.426,316.251,291.426z"/>
<path style="fill:#56ACE0;" d="M218.893,210.101l-44.283,99.297h66.715l10.537-72.727c-0.065-0.84-0.323-1.681-0.388-2.651h-0.646
	c-6.012,0-10.925-4.848-10.925-10.925c0-2.457,0.84-4.719,2.133-6.465c-1.875-1.034-3.814-1.875-5.883-2.392
	C230.465,212.622,224.711,211.265,218.893,210.101z"/>
<path style="fill:#194F82;" d="M381.737,370.812h-0.646c-2.909-29.931-15.774-54.885-33.745-68.396
	c17.907-13.511,30.772-38.529,33.745-68.396h0.646c6.012,0,10.925-4.848,10.925-10.925c0-6.012-4.848-10.925-10.925-10.925h-87.596
	c-8.857-19.782-25.794-34.521-46.739-40.21c-15.063-4.008-30.772-7.176-46.675-9.244c-4.784-0.646-9.438,1.939-11.442,6.335
	l-38.917,87.402l-38.917-87.402c-2.004-4.396-6.659-7.046-11.442-6.335c-15.903,2.133-31.612,5.236-46.675,9.244
	C21.98,180.364,0,209.39,0,242.424v99.556c0,6.012,4.848,10.925,10.925,10.925h243.459c-1.422,5.689-2.457,11.636-3.103,17.842
	h-0.646c-6.012,0-10.925,4.849-10.925,10.925c0,6.012,4.848,10.925,10.925,10.925h130.909c6.012,0,10.925-4.848,10.925-10.925
	C392.469,375.661,387.749,370.812,381.737,370.812z M359.176,233.956c-3.879,32.517-21.786,57.471-42.861,57.471
	c-21.01,0-38.917-24.954-42.861-57.471L359.176,233.956L359.176,233.956z M21.851,331.184V242.23c0,0,0.129-39.305,37.172-49.131
	c11.636-3.103,23.661-5.624,35.879-7.564l45.511,102.141c3.879,8.663,16.097,8.663,19.911,0l45.576-102.141
	c12.218,1.939,24.242,4.461,35.879,7.564c11.119,3.038,20.622,9.826,27.281,19.071h-18.295c-3.556,0-6.723,1.745-8.727,4.396
	c-1.422,1.875-2.133,4.008-2.133,6.465c0,6.012,4.848,10.925,10.925,10.925h0.646c0.065,0.905,0.259,1.745,0.388,2.651
	c3.491,28.638,15.903,52.622,33.358,65.745c-9.115,6.853-16.937,16.743-22.82,28.768H21.915v0.065H21.851z M273.39,370.812
	c3.879-32.517,21.786-57.471,42.796-57.471s38.917,24.954,42.796,57.471H273.39z"/>
<path style="fill:#56ACE0;" d="M150.432,21.85c-30.448,0-55.143,24.695-55.143,55.143s24.76,55.143,55.143,55.143
	s55.143-24.76,55.143-55.143S180.881,21.85,150.432,21.85z"/>
<path style="fill:#194F82;" d="M150.432,0.065c-42.408,0-76.994,34.521-76.994,76.994s34.586,76.929,76.994,76.929
	s76.994-34.521,76.994-76.994S192.84,0.065,150.432,0.065z M150.432,132.267c-30.448,0-55.143-24.76-55.143-55.143
	s24.76-55.143,55.143-55.143s55.143,24.76,55.143,55.143S180.881,132.267,150.432,132.267z"/>
</svg>